<?xml version="1.0" encoding="utf-8"?>
<!-- Generator: Adobe Illustrator 27.8.1, SVG Export Plug-In . SVG Version: 6.00 Build 0)  -->
<svg version="1.1" id="Layer_1" xmlns="http://www.w3.org/2000/svg" xmlns:xlink="http://www.w3.org/1999/xlink" x="0px" y="0px"
	 viewBox="0 0 151.3 40.4" style="enable-background:new 0 0 151.3 40.4;" xml:space="preserve">
<style type="text/css">
	.st0{fill:#241C15;}
</style>
<g>
	<path class="st0" d="M28.6,19.1c0.3,0,0.6,0,0.8,0c0.2-0.3,0.2-0.9,0-1.6c-0.2-1-0.5-1.5-1-1.5c-0.6,0.1-0.6,0.8-0.4,1.7
		C28.2,18.3,28.4,18.8,28.6,19.1z"/>
	<path class="st0" d="M23.8,19.8c0.4,0.2,0.6,0.3,0.7,0.2c0.1-0.1,0-0.2-0.1-0.3c-0.2-0.3-0.6-0.7-1-0.8c-0.9-0.4-1.9-0.3-2.8,0.3
		c-0.3,0.2-0.5,0.5-0.5,0.6c0,0.1,0.1,0.1,0.1,0.1c0.2,0,1-0.4,1.9-0.4C22.9,19.5,23.4,19.7,23.8,19.8z"/>
	<path class="st0" d="M23,20.3c-0.5,0.1-0.8,0.3-1,0.4c-0.2,0.1-0.3,0.3-0.3,0.4c0,0.1,0,0.1,0,0.1c0,0,0.1,0,0.1,0
		c0.1,0,0.4-0.1,0.4-0.1c0.7-0.3,1.2-0.2,1.7-0.2c0.3,0,0.4,0,0.4,0c0,0,0-0.1,0-0.2C24.2,20.5,23.7,20.2,23,20.3z"/>
	<path class="st0" d="M27,22c0.4,0.2,0.7,0.1,0.9-0.2c0.1-0.3-0.1-0.6-0.4-0.8c-0.4-0.2-0.7-0.1-0.9,0.2C26.4,21.5,26.6,21.8,27,22z
		"/>
	<path class="st0" d="M29.3,20c-0.3,0-0.5,0.3-0.5,0.7c0,0.4,0.2,0.7,0.5,0.7s0.5-0.3,0.5-0.7C29.8,20.3,29.5,20,29.3,20z"/>
	<path class="st0" d="M9.6,27.1c-0.1,0-0.2,0-0.3,0c-0.2,0-0.4-0.1-0.5-0.2c-0.1-0.2-0.1-0.5,0-0.8c0,0,0-0.1,0.1-0.2
		c0.2-0.5,0.6-1.4,0.2-2.2c-0.3-0.6-0.9-1-1.5-1.1c-0.6-0.1-1.3,0.2-1.7,0.6c-0.6,0.7-0.7,1.7-0.6,2c0,0.1,0.1,0.2,0.2,0.2
		c0.1,0,0.3-0.1,0.4-0.3c0,0,0,0,0-0.1c0-0.1,0.1-0.4,0.3-0.6c0.2-0.3,0.4-0.4,0.7-0.5c0.3-0.1,0.6,0,0.9,0.2
		c0.4,0.3,0.6,0.8,0.4,1.4c-0.1,0.3-0.3,0.8-0.2,1.2C8,27.4,8.6,27.7,9,27.8c0.5,0,0.8-0.2,0.9-0.4c0-0.1,0-0.2,0-0.2
		C9.8,27,9.7,27.1,9.6,27.1z"/>
	<path class="st0" d="M36.5,25.6c0-0.1-0.1-0.5-0.3-1c-0.2-0.5-0.3-0.9-0.3-0.9c0.6-0.9,0.6-1.8,0.6-2.3c-0.1-0.6-0.3-1.1-0.8-1.6
		c-0.5-0.5-1.5-1.1-2.9-1.5c-0.2,0-0.7-0.2-0.8-0.2c0,0,0-1.8-0.1-2.5c0-0.5-0.1-1.4-0.3-2.2c-0.3-1.1-0.9-2.1-1.5-2.7
		c1.9-1.9,3-4.1,3-5.9c0-3.5-4.3-4.6-9.7-2.4c0,0-1.1,0.5-1.1,0.5c0,0-2-2-2.1-2c-6.1-5.3-25.1,15.8-19,21l1.3,1.1
		c-0.3,0.9-0.5,1.9-0.4,3c0.1,1.4,0.9,2.8,2.1,3.8c1.1,1,2.6,1.6,4,1.6c2.4,5.4,7.8,8.8,14.1,9c6.8,0.2,12.5-3,14.9-8.7
		c0.2-0.4,0.8-2.2,0.8-3.8C38,26.2,37.1,25.6,36.5,25.6z M8.7,29.8c-0.2,0-0.4,0-0.6,0c-2.1-0.1-4.3-1.9-4.5-4.1
		c-0.2-2.4,1-4.3,3.2-4.7C7.1,21,7.4,21,7.7,21c1.2,0.1,3,1,3.5,3.7C11.5,27,11,29.5,8.7,29.8z M6.4,19.6c-1.4,0.3-2.6,1-3.3,2.1
		c-0.4-0.4-1.3-1.1-1.4-1.4c-1.2-2.2,1.3-6.6,3-9C9,5.3,15.6,0.7,18.7,1.6c0.5,0.1,2.2,2.1,2.2,2.1s-3.1,1.7-5.9,4.1
		C11.1,10.7,8.2,15,6.4,19.6z M14.3,11.3c1.5-1.7,3.4-3.3,5-4.1c0.1,0,0.1,0,0.1,0.1c-0.1,0.2-0.4,0.8-0.5,1.1
		c0,0.1,0.1,0.1,0.1,0.1c1-0.7,2.8-1.5,4.4-1.6c0.1,0,0.1,0.1,0,0.1c-0.2,0.2-0.5,0.4-0.7,0.7c0,0,0,0.1,0.1,0.1
		c1.1,0,2.7,0.4,3.7,1c0.1,0,0,0.2-0.1,0.2c-1.5-0.4-4.1-0.6-6.7,0c-2.3,0.6-4.1,1.5-5.4,2.4C14.3,11.5,14.2,11.4,14.3,11.3z
		 M36.6,28.4c-0.3,1.8-1.1,3.2-2.3,4.6c-0.8,0.8-1.7,1.6-2.8,2.1c-0.6,0.3-1.2,0.6-1.8,0.8c-4.8,1.6-9.7-0.2-11.3-3.9
		c-0.1-0.3-0.2-0.6-0.3-0.9c-0.7-2.4-0.1-5.4,1.7-7.2c0,0,0,0,0,0c0.1-0.1,0.2-0.3,0.2-0.4c0-0.1-0.1-0.3-0.2-0.4
		c-0.6-0.9-2.8-2.5-2.4-5.5c0.3-2.2,2.2-3.7,4-3.6c0.1,0,0.3,0,0.4,0c0.8,0,1.4,0.1,2.1,0.2c1.1,0,2-0.1,3.1-1
		c0.4-0.3,0.7-0.6,1.2-0.7c0.1,0,0.2-0.1,0.5,0c0.3,0,0.5,0.1,0.8,0.2c0.9,0.6,1,2,1.1,3.1c0,0.6,0.1,2.1,0.1,2.5
		c0.1,1,0.3,1.1,0.8,1.3c0.3,0.1,0.6,0.2,0.9,0.3c1.2,0.3,1.9,0.7,2.3,1.1c0.3,0.3,0.4,0.6,0.4,0.8c0.1,1-0.8,2.3-3.3,3.4
		c-2.7,1.3-6,1.6-8.2,1.3c-0.2,0-0.8-0.1-0.8-0.1C21,26.1,19.9,28.4,21,30c0.7,1,2.6,1.7,4.5,1.7c4.4,0,7.7-1.9,9-3.5
		c0,0,0-0.1,0.1-0.1c0.1-0.1,0-0.1-0.1-0.1c-1,0.7-5.6,3.5-10.4,2.6c0,0-0.6-0.1-1.1-0.3c-0.4-0.2-1.3-0.6-1.4-1.5
		c3.9,1.2,6.4,0.1,6.4,0.1c0,0,0.1-0.1,0.1-0.1c0-0.1-0.1-0.1-0.1-0.1c0,0-3.2,0.5-6.3-0.6c0.3-1.1,1.2-0.7,2.5-0.6
		c2.4,0.1,4.5-0.2,6.1-0.7c1.4-0.4,3.2-1.2,4.6-2.3c0.5,1,0.6,2.2,0.6,2.2s0.4-0.1,0.7,0.1C36.5,27,36.8,27.4,36.6,28.4z M21.8,28.2
		C21.8,28.2,21.8,28.2,21.8,28.2C21.8,28.2,21.8,28.2,21.8,28.2C21.8,28.2,21.8,28.2,21.8,28.2z"/>
	<path class="st0" d="M59.9,22.4c-3.2,0-3.3,3.5-4,3.5c-0.2,0-0.3-0.1-0.3-0.3c0-0.3,0.1-0.5,0.1-0.9c0-1.3-0.9-2.3-2.7-2.3
		c-1.6,0-2.7,0.8-3.4,2.2c-0.4,0.7-0.3,1.2-0.7,1.2c-0.1,0-0.2-0.1-0.2-0.3c0-0.5,0.5-1,0.5-2.2c0-0.3,0-0.6-0.1-0.8h-3v11.8h4.1V28
		c0-1.3,0.5-2.1,1.5-2.1c0.6,0,1.2,0.5,1.2,1.5v7h4.1V28c0-1.4,0.7-2.1,1.5-2.1c0.7,0,1.2,0.6,1.2,1.5v7h4.1v-7.2
		C63.5,24,62.2,22.4,59.9,22.4z"/>
	<rect x="84" y="19.3" class="st0" width="4.1" height="15.1"/>
	<path class="st0" d="M89.4,28.4c0,4,2.6,6.3,6,6.3c1.9,0,3.4-0.8,4.3-1.5v-3.9c-0.9,0.6-2.3,1.3-3.8,1.3c-1.9,0-2.9-0.8-2.9-2.1
		c0-1.3,1.1-2.1,2.8-2.1c1.5,0,2.9,0.6,3.9,1.3v-4.1c-0.9-0.6-2.4-1.2-4.3-1.2C91.8,22.4,89.4,24.6,89.4,28.4z"/>
	<path class="st0" d="M108.7,22.4c-1.7,0-2.6,0.8-3.3,2.2c-0.3,0.6-0.3,1.2-0.7,1.2c-0.1,0-0.2-0.1-0.2-0.3c0-0.7,0.8-1.6,0.8-4.5
		c0-0.7-0.1-1.3-0.2-1.7h-3.6v15.1h4.1v-6.3c0-1.2,0.6-2.1,1.6-2.1c0.7,0,1.2,0.6,1.2,1.5v6.9h4.1V27
		C112.5,24,111.1,22.4,108.7,22.4z"/>
	<path class="st0" d="M146.6,22.4c-1.8,0-2.8,1-3.3,2c-0.4,0.8-0.5,1.5-0.8,1.5c-0.2,0-0.3-0.1-0.3-0.3c0-0.4,0.5-1,0.5-2
		c0-0.4,0-0.7-0.1-0.9h-3.1v14.8h4.1v-4.7c0.5,1.1,1.6,1.9,3.1,1.9c2.7,0,4.6-2.2,4.6-6.2C151.3,24.9,149.6,22.4,146.6,22.4z
		 M145.4,31.9c-0.8,0-1.7-0.9-1.7-3c0-1.9,0.7-3,1.7-3c1.1,0,1.8,1.1,1.8,3C147.2,31,146.5,31.9,145.4,31.9z"/>
	<path class="st0" d="M70.9,22.4c-2.1,0-4.1,0.5-5.4,1.2V27c1.6-0.9,3.2-1.5,4.6-1.5c1.5,0,2.2,0.8,2.1,1.9
		c-0.6-0.1-1.3-0.1-2.1-0.1c-3.2,0-5.3,1.3-5.3,4c0,2.3,1.8,3.4,3.7,3.4c1.9,0,3.2-0.9,3.9-2.2c0.4-0.8,0.4-1.2,0.7-1.2
		c0.1,0,0.2,0.1,0.2,0.2c0,0.5-0.1,0.8-0.1,1.4c0,0.6,0.1,1.1,0.2,1.5h3v-6.3C76.3,24.5,74.6,22.4,70.9,22.4z M69.5,31.8
		c-0.8,0-1.2-0.3-1.2-0.9c0-0.8,0.7-1.3,2.6-1.3c0.4,0,0.8,0,1.1,0C71.8,30.6,70.9,31.8,69.5,31.8z"/>
	<path class="st0" d="M85.6,11.5V4.9h-2.8v6.3c0,1.6-1,2.6-2.4,2.6c-1.4,0-2.4-1-2.4-2.6V4.9h-2.8l0,6.6c0,2.9,2.3,5,5.2,5
		C83.3,16.5,85.6,14.4,85.6,11.5z"/>
	<polygon class="st0" points="96.5,16.3 99.4,16.3 99.4,7.6 102.8,7.6 102.8,4.9 93.2,4.9 93.2,7.6 96.5,7.6 	"/>
	<rect x="88.5" y="4.9" class="st0" width="2.8" height="11.4"/>
	<polygon class="st0" points="67,16.3 69.9,16.3 69.9,7.6 73.2,7.6 73.2,4.9 63.6,4.9 63.6,7.6 67,7.6 	"/>
	<polygon class="st0" points="48.8,10.6 48.8,4.9 45.9,4.9 45.9,16.3 48.8,16.3 	"/>
	<path class="st0" d="M54.5,10c0-1.6,1-2.6,2.4-2.6c1.4,0,2.4,1,2.4,2.6v6.3h2.8l0-6.6c0-2.9-2.3-5-5.2-5c-2.9,0-5.2,2.1-5.2,5v6.6
		h2.8V10z"/>
	<path class="st0" d="M134.1,22.4c-3.2,0-3.3,3.5-4,3.5c-0.2,0-0.3-0.1-0.3-0.3c0-0.3,0.1-0.5,0.1-0.9c0-1.3-0.9-2.3-2.7-2.3
		c-1.6,0-2.7,0.8-3.4,2.2c-0.4,0.7-0.3,1.2-0.7,1.2c-0.1,0-0.2-0.1-0.2-0.3c0-0.5,0.5-1,0.5-2.2c0-0.3,0-0.6-0.1-0.8h-3v11.8h4.1V28
		c0-1.3,0.5-2.1,1.5-2.1c0.6,0,1.2,0.5,1.2,1.5v7h4.1V28c0-1.4,0.7-2.1,1.5-2.1c0.7,0,1.2,0.6,1.2,1.5v7h4.1v-7.2
		C137.8,24,136.5,22.4,134.1,22.4z"/>
	<path class="st0" d="M116.3,23.5c-0.9,0-1.5-0.1-2.1-0.4v11.3h4.1V23.1C117.8,23.3,117.1,23.5,116.3,23.5z"/>
	<path class="st0" d="M116.3,19.3c-1.7,0-2.6,0.7-2.6,1.6c0,0.9,1,1.6,2.6,1.6c1.5,0,2.6-0.7,2.6-1.6
		C118.8,20,117.9,19.3,116.3,19.3z"/>
	<path class="st0" d="M80.1,23.5c-0.9,0-1.5-0.1-2.1-0.4v11.3h4.1V23.1C81.6,23.3,81,23.5,80.1,23.5z"/>
	<path class="st0" d="M80.1,19.3c-1.7,0-2.6,0.7-2.6,1.6c0,0.9,1,1.6,2.6,1.6c1.5,0,2.6-0.7,2.6-1.6C82.7,20,81.8,19.3,80.1,19.3z"
		/>
</g>
</svg>
